<?xml version="1.0" encoding="utf-8"?>
<!-- Generator: Adobe Illustrator 27.5.0, SVG Export Plug-In . SVG Version: 6.00 Build 0)  -->
<svg version="1.1" xmlns="http://www.w3.org/2000/svg" xmlns:xlink="http://www.w3.org/1999/xlink" x="0px" y="0px"
	 viewBox="0 0 500 500" style="enable-background:new 0 0 500 500;" xml:space="preserve">
<g id="Floor">
	<ellipse id="Floor_7_" style="fill:#F5F5F5;" cx="252.301" cy="353.908" rx="233.163" ry="133.638"/>
</g>
<g id="Shadows">
	<ellipse id="Shadow_32_" style="fill:#E0E0E0;" cx="413.542" cy="325.572" rx="50.754" ry="29.303"/>
	<ellipse id="Shadow_33_" style="fill:#E0E0E0;" cx="94.69" cy="394.954" rx="47.894" ry="27.652"/>
	<ellipse id="Shadow_34_" style="fill:#E0E0E0;" cx="250.859" cy="356.324" rx="40.919" ry="23.625"/>
</g>
<g id="Plants">
	<g id="Plants_13_">
		<g id="XMLID_14332_">
			<g id="XMLID_14809_">
				<path id="XMLID_14863_" style="fill:#27DEBF;" d="M184.426,359l4.997-2.698c0,0,2.677-12.971,1.178-24.213
					c-2.108-15.805-12.698-21.494-16.629-20.022c-3.931,1.472-4.958,6.114,1.855,15.381C179.846,332.915,184.91,344.391,184.426,359
					z"/>
			</g>
			<g id="XMLID_14335_" style="opacity:0.15;">
				<path id="XMLID_14808_" d="M184.426,359l4.997-2.698c0,0,2.677-12.971,1.178-24.213c-2.108-15.805-12.698-21.494-16.629-20.022
					c-3.931,1.472-4.958,6.114,1.855,15.381C179.846,332.915,184.91,344.391,184.426,359z"/>
			</g>
			<g id="XMLID_14333_">
				<path id="XMLID_14334_" style="fill:#FFFFFF;" d="M186.363,352.79c-0.016,0-0.032-0.002-0.049-0.005
					c-0.191-0.031-0.322-0.212-0.29-0.403c2.391-14.692-3.15-30.985-9.654-37.654c-0.135-0.139-0.133-0.362,0.007-0.497
					c0.139-0.134,0.362-0.133,0.497,0.007c6.623,6.79,12.27,23.348,9.844,38.257C186.689,352.67,186.535,352.794,186.363,352.79z"/>
			</g>
		</g>
		<g id="XMLID_14311_">
			<g id="XMLID_14316_">
				<path id="XMLID_14331_" style="fill:#27DEBF;" d="M170.858,366.41c-0.789,0.428-2.371-0.588-2.976-1.015
					c-1.036-0.731-1.864-1.752-2.404-2.897c-0.628-1.332-0.76-2.747-0.518-4.198c0.125-0.753,0.354-1.484,0.582-2.212
					c0.224-0.715,0.448-1.429,0.673-2.144c0.221-0.705,0.445-1.435,0.369-2.17c-0.154-1.481-1.439-2.547-2.61-3.468
					c-1.294-1.018-2.635-2.354-2.585-4.132c0.039-1.371,0.78-2.628,1.656-3.685c0.876-1.056,1.908-1.983,2.703-3.101
					c0.573-0.805,1.027-1.755,0.961-2.741c-0.041-0.612-0.281-1.194-0.56-1.74c-0.6-1.173-1.403-2.253-1.806-3.507
					c-0.403-1.254-0.304-2.799,0.688-3.666c0.814-0.711,2.001-0.785,3.077-0.688c0.996,0.09,1.96,0.563,2.821,1.07
					c2.785,1.637,4.315,5.018,7.281,6.298c1.144,0.493,2.407,0.626,3.604,0.973c1.197,0.347,2.41,0.992,2.94,2.119
					c1.047,2.222-1.059,4.88-0.342,7.229c0.634,2.079,2.62,2.917,3.701,4.803c0.473,0.825,0.564,1.768,0.462,2.713
					c-0.173,1.6-0.436,2.771-1.248,4.536c-0.671,1.458-2.603,4.05-2.603,4.05C184.675,358.883,170.979,366.344,170.858,366.41z"/>
			</g>
			<g id="XMLID_14314_">
				<path id="XMLID_14315_" style="fill:#FFFFFF;" d="M178.961,362.339c-0.005,0-0.01,0-0.01,0
					c-0.199-0.013-0.345-0.181-0.333-0.374c0.916-13.939-5.289-29.5-9.962-34.09c-0.138-0.136-0.14-0.358-0.005-0.497
					c0.136-0.138,0.358-0.14,0.497-0.005c4.767,4.682,11.099,20.503,10.171,34.637C179.308,362.2,179.149,362.344,178.961,362.339z"
					/>
			</g>
			<g id="XMLID_14312_">
				<path id="XMLID_14313_" style="fill:#FFFFFF;" d="M177.266,345.805c-0.034-0.001-0.069-0.006-0.103-0.018
					c-4.449-1.493-10.031-1.872-10.086-1.875c-0.194-0.013-0.34-0.181-0.328-0.374c0.013-0.193,0.163-0.343,0.374-0.328
					c0.057,0.004,5.727,0.388,10.264,1.911c0.184,0.061,0.284,0.261,0.221,0.445C177.558,345.715,177.417,345.809,177.266,345.805z"
					/>
			</g>
		</g>
	</g>
	<g id="Plants_1_">
		<g id="XMLID_8586_">
			<path id="XMLID_14272_" style="fill:#27DEBF;" d="M312.003,336.716l-5.386-3.109c0,0-1.319-11.535-0.441-20.468
				c1.233-12.553,9.34-27.656,19.011-24.109c9.671,3.547-4.434,16.331-7.574,26.977
				C314.473,326.654,312.003,336.716,312.003,336.716z"/>
			<path id="XMLID_8512_" style="opacity:0.15;" d="M312.003,336.716l-5.386-3.109c0,0-1.319-11.535-0.441-20.468
				c1.233-12.553,9.34-27.656,19.011-24.109c9.671,3.547-4.434,16.331-7.574,26.977
				C314.473,326.654,312.003,336.716,312.003,336.716z"/>
			<path id="XMLID_8635_" style="fill:#FFFFFF;" d="M309.171,335.407c0.003,0,0.007,0,0.011,0c0.18-0.006,0.321-0.157,0.315-0.337
				c-0.946-27.892,12.938-41.922,13.078-42.06c0.128-0.127,0.13-0.333,0.004-0.461c-0.128-0.128-0.334-0.13-0.461-0.003
				c-0.143,0.141-14.228,14.372-13.273,42.547C308.851,335.268,308.996,335.407,309.171,335.407z"/>
		</g>
		<g id="XMLID_8505_">
			<path id="XMLID_8521_" style="fill:#27DEBF;" d="M314.878,338.941l-3.833-2.213c0,0-0.652-7.915,3.229-17.531
				c3.378-8.371,11.761-15.315,15.977-13.856c4.216,1.459,4.111,4.449,2.056,7.585C330.251,316.063,317.746,323.538,314.878,338.941
				z"/>
			<path id="XMLID_8506_" style="fill:#FFFFFF;" d="M312.856,338.1h0.002c0.18-0.001,0.326-0.147,0.325-0.328
				c-0.076-17.635,16.483-29.554,16.65-29.673c0.147-0.104,0.182-0.307,0.077-0.454c-0.103-0.146-0.306-0.183-0.454-0.078
				c-0.17,0.12-17.003,12.237-16.925,30.207C312.531,337.955,312.677,338.1,312.856,338.1z"/>
		</g>
	</g>
</g>
<g id="Character_3_1_">
	<g id="XMLID_15083_">
		<path id="XMLID_8008_" style="fill:#FFC1A7;" d="M370.892,173.392c16.715-1.512,32.592-4.246,37.751-10.887
			c-4.558-3.576-5.697-4.27-10.452-4.236c-4.234,0.031-22.485,5.272-28.08,4.869c-3.885-1.939-15.786-11.152-20.154-14.295
			c-0.773-0.556-6.727,6.374-3.177,9.463c4.996,4.348,13.279,10.623,17.977,13.292C366.854,172.79,368.491,173.609,370.892,173.392z
			"/>
		<g id="XMLID_4736_">
			<path id="XMLID_4811_" style="fill:#455A64;" d="M390.046,105.615L390.046,105.615c-0.213-0.058-0.506-0.068-0.824,0.079
				l-9.211,4.149c-0.646,0.293-1.317-0.026-1.532-0.706c-0.362-1.162-6.672-2.499-7.189-3.498l3.545-8.794L390.046,105.615z"/>
			<path id="XMLID_4774_" style="fill:#263238;" d="M374.837,96.876l-0.001-0.02c-0.21-0.12-0.491-0.143-0.801-0.003l-6.799-15.736
				c0.317-0.639,0.073-1.446-0.544-1.803l-6.663-3.847c-0.618-0.357-1.438-0.164-1.833,0.43l-7.651,11.507
				c-0.395,0.594-1.291,1.013-2.004,0.995c-0.866-0.023-1.759,0.022-2.672,0.125v-8.414l-5.112-2.947v0.001
				c-0.227-0.121-0.523-0.106-0.836,0.075l-10.349,5.975c-0.617,0.357-1.17,1.221-1.234,1.932l-1.037,11.515
				c-0.064,0.71-0.551,1.667-1.076,2.15c-2.014,1.855-3.938,3.898-5.749,6.085c-0.455,0.549-1.36,0.811-2.033,0.576l-6.643-2.32
				c-0.673-0.235-1.508,0.075-1.865,0.693l-7.608,13.177c-0.357,0.618-0.208,1.496,0.333,1.961l5.33,4.593
				c0.54,0.465,0.766,1.381,0.517,2.05c-0.988,2.662-1.796,5.35-2.396,8.022c-0.156,0.696-0.741,1.596-1.324,2.006l-9.454,6.655
				c-0.583,0.411-1.056,1.322-1.056,2.035v11.949c0,0.368,0.142,0.634,0.368,0.768l-0.003,0.002l11.982,6.915l-4.37,8.811
				c-0.317,0.639-0.073,1.446,0.545,1.803l16.289,9.436c0.618,0.357,1.438,0.164,1.833-0.43l7.402-7.569
				c0.034,0.343,0.182,0.587,0.396,0.707l15.174,8.757l0.405-11.88c0,0-3.208-4.141-3.144-4.852l16.538-18.009
				c0.673,0.237,1.507-0.072,1.864-0.69l7.608-13.177c0.357-0.618,0.208-1.496-0.333-1.961l7.325-23.324
				c0.583-0.41,1.056-1.322,1.056-2.035L374.837,96.876z M334.746,147.139c-4.441,2.564-8.109,3.112-10.776,1.871
				c-3.131-1.457,22.268-45.003,24.934-42.625c2.155,1.922,3.324,5.489,3.324,10.472
				C352.228,128.007,344.401,141.564,334.746,147.139z"/>
			<path id="XMLID_4773_" style="fill:#455A64;" d="M377.367,86.96l-2.058,4.158l-6.612,7.627l-7.791-4.502l-10.916-6.31
				c0.224-0.146,0.422-0.327,0.551-0.534l7.654-11.502c0.396-0.585,1.197-0.784,1.816-0.439l6.681,3.857l10.133,5.845
				C377.436,85.514,377.685,86.323,377.367,86.96z"/>
			<path id="XMLID_4772_" style="fill:#455A64;" d="M305.489,134.913c-0.214,0.296-0.454,0.565-0.701,0.738l-9.454,6.655
				c-0.249,0.176-0.469,0.452-0.65,0.756l15.896,9.197l12.551-7.14L305.489,134.913z"/>
			<path id="XMLID_4771_" style="fill:#455A64;" d="M311.177,103.083c-0.502,0.047-0.991,0.324-1.242,0.759l-7.608,13.177
				c-0.174,0.302-0.224,0.667-0.17,1.016l16.658,9.64l10.414-14.088L311.177,103.083z"/>
			<path id="XMLID_4770_" style="fill:#455A64;" d="M355.965,85.944v3.788l-9.211,5.32l-18.251-10.546
				c0.224-0.534,0.629-1.042,1.068-1.291l10.348-5.975c0.181-0.103,0.362-0.155,0.516-0.155c0.121,0,0.224,0.026,0.319,0.077
				l4.985,2.867l0.129,0.077l6.879,3.977L355.965,85.944z"/>
			<path id="XMLID_4767_" style="fill:#37474F;" d="M390.425,118.343v-11.95c0-0.713-0.527-1.054-1.177-0.761l-9.211,4.152
				c-0.65,0.293-1.319-0.03-1.534-0.71c-0.536-1.693-1.226-3.217-2.054-4.567c-0.373-0.608-0.457-1.593-0.14-2.232l6.139-12.379
				c0.317-0.639,0.073-1.446-0.544-1.803l-6.663-3.847c-0.618-0.357-1.439-0.164-1.833,0.43l-7.651,11.507
				c-0.395,0.594-1.29,1.013-2.003,0.995c-1.583-0.041-3.248,0.123-4.982,0.505c-0.697,0.154-1.31-0.264-1.382-0.973l-1.01-10.053
				c-0.071-0.71-0.63-0.996-1.247-0.639l-10.349,5.975c-0.618,0.357-1.17,1.221-1.234,1.932l-1.036,11.515
				c-0.064,0.71-0.552,1.667-1.076,2.15c-2.014,1.855-3.937,3.898-5.749,6.085c-0.455,0.549-1.36,0.811-2.033,0.576l-6.643-2.32
				c-0.673-0.235-1.508,0.075-1.865,0.693l-7.608,13.178c-0.357,0.618-0.208,1.496,0.332,1.961l5.331,4.593
				c0.54,0.466,0.766,1.381,0.517,2.05c-0.988,2.662-1.796,5.35-2.395,8.021c-0.156,0.696-0.741,1.595-1.324,2.006l-9.454,6.655
				c-0.583,0.41-1.056,1.321-1.056,2.035v11.949c0,0.713,0.527,1.054,1.177,0.761l9.211-4.152c0.65-0.293,1.319,0.03,1.534,0.711
				c0.536,1.693,1.226,3.217,2.053,4.567c0.372,0.608,0.457,1.593,0.14,2.232l-6.139,12.379c-0.317,0.639-0.073,1.446,0.545,1.802
				l6.663,3.846c0.618,0.357,1.439,0.164,1.833-0.43l7.651-11.506c0.395-0.594,1.291-1.014,2.004-0.995
				c1.583,0.041,3.248-0.123,4.982-0.506c0.696-0.154,1.31,0.264,1.382,0.973l1.01,10.054c0.071,0.71,0.63,0.996,1.248,0.639
				l10.349-5.975c0.618-0.356,1.17-1.221,1.234-1.932l1.037-11.515c0.064-0.71,0.552-1.667,1.076-2.15
				c2.014-1.854,3.937-3.897,5.747-6.084c0.455-0.549,1.36-0.812,2.034-0.577l6.643,2.319c0.673,0.235,1.508-0.075,1.865-0.693
				l7.608-13.177c0.357-0.618,0.208-1.496-0.333-1.961l-5.331-4.593c-0.54-0.466-0.766-1.381-0.517-2.05
				c0.988-2.662,1.796-5.35,2.395-8.021c0.156-0.696,0.741-1.595,1.324-2.006l9.454-6.655
				C389.952,119.967,390.425,119.057,390.425,118.343z M349.958,155.919c-9.656,5.575-17.484,1.055-17.484-10.094
				c0-11.149,7.828-24.706,17.484-30.281c9.655-5.574,17.483-1.055,17.483,10.094C367.441,136.787,359.613,150.344,349.958,155.919z
				"/>
		</g>
		<g id="Character_1_">
			<g id="XMLID_2092_">
				<path id="XMLID_2375_" style="fill:#37474F;" d="M408.846,153.851h0.686c9.499,0,17.199-7.7,17.199-17.199v0
					c0-9.155-7.422-16.576-16.577-16.576h-1.93c-9.155,0-16.577,7.422-16.577,16.577l0,0
					C391.647,146.151,399.347,153.851,408.846,153.851z"/>
			</g>
			<path id="XMLID_1228_" style="fill:#37474F;" d="M435.436,163.533L435.436,163.533c-5.542,0-10.035-4.493-10.035-10.035v-22.073
				l0,0c5.542,0,10.035,4.493,10.035,10.035V163.533z"/>
			<g id="XMLID_6672_">
				<g id="XMLID_15086_">
					<g id="XMLID_15089_">
						<path id="XMLID_15090_" style="fill:#263238;" d="M442.914,309.692c-0.635,1.268-0.342,2.863-0.456,6.321
							c-0.074,2.273-0.057,4.565-0.4,6.819c-0.123,0.807-0.399,1.542-0.585,2.328c-0.15,0.634-0.425,1.168-0.94,1.602
							c-0.429,0.362-1.024,0.567-1.563,0.41c-0.427-0.124-0.77-0.463-0.973-0.858c-0.276-0.538-0.736-1.827-0.848-2.4
							c-0.757,5.779-6.643,9.527-2.837,11.032c3.301,1.305,5.646,0.256,7.698-0.624c1.26-0.54,2.38-1.742,2.653-2.199
							c1.521-2.544,1.314-4.87,1.374-7.083c0.133-4.887,0.828-6.61,1.266-9.048C447.832,313.041,443.849,309.265,442.914,309.692z"
							/>
					</g>
					<g id="XMLID_15091_">
						<path id="XMLID_15092_" style="fill:#FFC1A7;" d="M435.902,312.566c-0.001-0.004-4.736-11.887-4.736-11.887l7.871-3.016
							c0.94,1.859,3.378,11.325,3.877,12.029c0.728,1.027,1.24,2.121,1.217,3.354c-0.073,3.942-0.566,7.876-1.467,11.714
							c-0.422,1.796-1.499,2.999-3.183,3.771c-0.629,0.289-1.316,0.511-2.003,0.431c-0.227-0.026-0.462-0.093-0.62-0.257
							c-0.33-0.344-0.009-1.137,0.062-1.536c0.115-0.643,0.183-1.294,0.214-1.946c0.061-1.282,0.05-2.847-0.011-4.128
							C436.965,317.744,436.527,315.02,435.902,312.566z"/>
					</g>
				</g>
				<g id="XMLID_6710_">
					<path id="XMLID_8000_" style="fill:#263238;" d="M400.56,316.168c0,0,0.322,0.053,0.389,0.494
						c0.098,0.653,0.204,1.872,0.404,2.987c0.266,1.485,0.542,3.619,0.278,4.802c-0.264,1.183-3.047,2.86-4.918,3.106
						c-1.871,0.246-5.092,1.989-6.598,3.309c-1.845,1.616-5.752,2.922-8.377,2.953c-3.078,0.036-5.494-0.692-6.195-2.921
						c-0.295-0.936,0.476-2.076,4.447-3.892c0,0,2.009-1.011,3.151-1.7c5.752-3.471,7.729-5.467,9.45-9.082L400.56,316.168z"/>
					<path id="XMLID_6711_" style="fill:#FFC1A7;" d="M390.397,319.185c1.043-1.73,1.585-3.524,1.585-5.059l0.126-4.906h8.477
						l-0.029,6.945l-0.028,1.062c-0.479,3.369-3.655,3.765-6.311,5.629c-1.321,0.927-6.492,4.9-9.965,5.538
						c-2.825,0.519-3.88-0.592-4.258-1.392C383.542,324.995,388.27,321.377,390.397,319.185z"/>
				</g>
				<path id="XMLID_6708_" style="fill:#455A64;" d="M427.966,265.067c0,0,5.666,4.649,8.623,12.181
					c2.612,6.655,5.827,29.399,5.827,29.399s-3.954,3.615-8.418,2.191c0,0-16.195-30.428-18.628-37.704
					c-2.47-3.716-5.556-22.018-7.79-34.673l-0.082,0.135l-3.804,26.862c0,0,1.727,5.478,2.131,9.651
					c0.638,6.591-4.918,38.507-4.918,38.507s-3.788,1.977-9.032,0.231c0,0-1.874-39.982-2.469-47.921
					c-1-13.333-0.45-52.534,1.996-60.427l34.929,1.953l0.027-0.024c2.897,8.372,3.128,13.72,2.753,22.9
					C428.722,237.824,427.966,265.067,427.966,265.067z"/>
				<path id="XMLID_6706_" style="fill:#37474F;" d="M407.498,236.596l-1.985-12.403c0,0-8.397-1.739-12.206-5.32
					c0,0,3.996,4.97,9.93,6.598l2.229,9.549l-1.519,26.356L407.498,236.596z"/>
			</g>
			<g id="XMLID_5018_">
				<path id="XMLID_6614_" style="fill:#27DEBF;" d="M415.561,159.061L415.561,159.061c2.553,0.176,4.571,0.532,5.865,1.254
					c2.679,1.495,2.909,4.172,2.945,7.354c0.039,3.487-0.838,6.18-1.897,11.918l-1.996,11.055c0,0,2.951,6.688,5.868,14.81
					c-13.707,7.651-30.823,3.629-34.945-1.954c-0.174-1.184,0.885-10.442,1.537-16.489c-2.414-6.056-3.051-9.895-2.033-13.898
					c1.891-7.431,9.231-14.67,12.478-14.407L415.561,159.061z"/>
				<path id="XMLID_1999_" style="opacity:0.15;" d="M417.748,208.738c2.915-0.676,5.826-1.739,8.597-3.286
					c-2.918-8.122-5.868-14.81-5.868-14.81l1.996-11.055c0.996-5.395,1.831-8.098,1.895-11.299l-5.259,1.467
					c0,0-22.585,12.174-22.675,12.273c-0.044,0.049-2.238,1.231-4.447,2.416c0.282,0.815,0.59,1.658,0.951,2.563
					c-0.145,1.343-0.31,2.847-0.477,4.383c3.085-0.523,8.167-1.527,12.601-3.079c6.92-2.423,14.228-7.668,14.484-7.372
					c0.256,0.297-0.932,9.007-0.932,9.007l-3.167-0.594c0,0,4.938,6.144,6.329,8.813
					C423.165,200.832,424.545,206.353,417.748,208.738z"/>
				<g id="XMLID_5399_">
					<path id="XMLID_5708_" style="fill:#37474F;" d="M426.32,126.767l-1.133,4.346c1.213,0.359,2.451-0.323,2.763-1.523
						C428.263,128.39,427.533,127.126,426.32,126.767z"/>
					<path id="XMLID_5706_" style="fill:#37474F;" d="M429.346,128.782l-3.753,2.468c0.66,1.079,2.035,1.402,3.072,0.721
						C429.702,131.288,430.007,129.861,429.346,128.782z"/>
					<g id="XMLID_5679_">
						<path id="XMLID_5694_" style="fill:#FFC1A7;" d="M397.767,127.531c-1.853,1.095-4.143,5.755-3.917,15.525
							c0.192,8.28,2.875,10.325,4.223,10.915c1.348,0.59,3.947,0.231,6.473-0.19v4.969c0,0-3.492,4.056-3.272,6.335
							c0.22,2.279,5.042,2.817,8.31,0.591c3.268-2.226,5.363-5.614,5.363-5.614v-12.877c0,0,1.646,1.853,4.436,0
							c2.79-1.853,2.549-5.487,0.927-7.134c-1.622-1.647-4.711-0.787-5.362,1.488c0,0-4.03,0.147-9.396-2.801
							C400.186,135.791,398.124,130.742,397.767,127.531z"/>
					</g>
					<g id="XMLID_5675_">
						<path id="XMLID_5677_" style="fill:#263238;" d="M404.022,140.976c-0.03,0.597,0.411,1.102,0.986,1.13
							c0.575,0.027,1.064-0.434,1.094-1.031c0.03-0.597-0.411-1.102-0.986-1.13C404.542,139.918,404.052,140.379,404.022,140.976z"
							/>
					</g>
					<g id="XMLID_5624_">
						<path id="XMLID_5625_" style="fill:#F59F7B;" d="M402.817,147.995l-2.418,0.771c0.201,0.692,0.905,1.081,1.573,0.868
							C402.639,149.421,403.018,148.687,402.817,147.995z"/>
					</g>
					<g id="XMLID_5622_">
						<path id="XMLID_5623_" style="fill:#263238;" d="M395.485,137.779l2.107-1.46c-0.384-0.602-1.168-0.762-1.75-0.359
							C395.26,136.363,395.101,137.177,395.485,137.779z"/>
					</g>
					<g id="XMLID_5487_">
						<path id="XMLID_5488_" style="fill:#263238;" d="M395.971,140.223c-0.03,0.596,0.411,1.102,0.986,1.129
							c0.574,0.027,1.064-0.434,1.094-1.031c0.03-0.597-0.411-1.102-0.986-1.13C396.491,139.165,396.001,139.627,395.971,140.223z"
							/>
					</g>
					<g id="XMLID_5478_">
						<polygon id="XMLID_5479_" style="fill:#F59F7B;" points="401.056,139.627 400.891,145.895 397.592,144.873 						"/>
					</g>
					<g id="XMLID_5400_">
						<path id="XMLID_5477_" style="fill:#F59F7B;" d="M404.547,153.781c2.663-0.349,8.141-1.923,8.995-4.089
							c0,0-0.284,1.361-1.921,2.764c-1.636,1.403-7.074,2.983-7.074,2.983V153.781z"/>
					</g>
				</g>
			</g>
			<path id="XMLID_4766_" style="fill:#FFC1A7;" d="M392.005,190.103c25.662-9.697,34.044-14.223,33.69-24.075
				c-0.124-3.458-1.854-5.068-4.27-5.712c-3.314,0.141-5.808,4.391-9.963,9.47c0,0-15.133,7.746-20.686,10.62
				c-6.549,0.216-20.392-1.91-25.603-3.251c-0.923-0.237-1.496-1.632-2.027-2.423c-1.427-2.126-2.9-2.483-4.663-4.059
				c-0.633-0.566-1.054-1.1-1.364-1.493l-0.385,4.276c0,0-1.561-0.031-4.981-2.607c-3.842-2.894-6.118-2.974-5.97,3.163
				c0.092,3.845,2.565,6.835,11.131,9.449c2.468,0.753,6.416,1.647,9.601,2.389c4.783,1.114,6.388,1.354,11.053,2.463
				C382.531,189.491,389.75,190.955,392.005,190.103z"/>
		</g>
	</g>
</g>
<g id="Character_2">
	<g id="XMLID_15084_">
		<g id="XMLID_10410_">
			<path id="XMLID_10886_" style="fill:#B16668;" d="M276.57,140.749c-0.268-0.951-0.902-1.756-1.735-2.288
				c-2.235-1.427-3.128-2.879-4.804-4.668c-1.312-1.4-2.438-1.756-2.259-2.196c0.229-0.565,1.184-1.475,2.804-0.964
				c0.815,0.257,1.865,0.907,3.174,1.76c0,0-0.915-2.771-3.214-5.645c-3.115-3.894-3.232-6.269,3.133-6.266
				c3.988,0.002,7.264,1.509,10.183,10.325c0.841,2.54,1.43,6.846,2.012,10.186c1.303,7.608,2.598,17.412,2.203,22.737
				c-0.2,2.699-1.135,4.294-2.434,7.227c-1.299,2.934-15.511,29.297-19.195,34.21c-9.591-4.638-2.529-15.835-2.529-15.835
				s10.927-22.232,12.725-24.958c0.482-0.731,0.713-1.595,0.841-2.281C277.75,160.615,277.2,146.293,276.57,140.749z"/>
			<g id="XMLID_9205_">
				<path id="XMLID_15075_" style="fill:#455A64;" d="M254.935,190.763c2.484-0.643,3.756-0.943,6.469-3.429
					c3.825-3.506,8.182-11.292,8.182-11.292c3.472-0.826,10.689,1.889,10.986,8.382l-13.868,24.863L254.935,190.763z"/>
			</g>
		</g>
		<g id="XMLID_3616_">
			<g id="XMLID_4620_">
				<path id="XMLID_4621_" style="fill:#27DEBF;" d="M280.72,92.604l21.264-4.769c-0.009-0.009-0.026-0.017-0.043-0.026
					c-0.508-0.293-4.855-2.815-9.091-5.26c-4.175-2.419-8.256-4.778-8.437-4.881c-0.163-0.103-0.362-0.163-0.594-0.172l-7.464-0.422
					c-0.758-0.043-1.318-0.585-1.257-1.214c0.215-2.497,0.224-4.916,0.009-7.197c-0.052-0.603,0.301-1.584,0.818-2.204l11.94-0.973
					c0.508-0.62,10.279-10.047,10.279-10.047c-0.017-0.009-0.034-0.017-0.051-0.026c-1.025-0.594-17.442-10.107-17.545-10.167
					c-0.095-0.052-0.215-0.069-0.336-0.069c-5.054-2.918-13.912-8.049-14.119-8.178c-0.215-0.129-0.517-0.198-0.861-0.164
					l-8.704,0.861c-0.809,0.086-1.661,0.68-1.903,1.326l-4.718,12.655c-0.25,0.654-1.102,1.455-1.903,1.842
					c-0.921,0.43-1.842,0.921-2.772,1.455l-9.134-5.286c-0.361-0.241-0.938-0.086-1.412,0.413l-9.556,10.09
					c-0.577,0.603-0.904,1.541-0.741,2.101l2.66,9.005c0.164,0.56-0.06,1.532-0.491,2.17c-1.627,2.471-3.099,5.036-4.391,7.636
					c-0.327,0.654-1.248,1.343-2.075,1.541l-8.179,1.971c-0.826,0.198-1.662,0.887-1.851,1.541l-4.115,13.852
					c-0.12,0.405,0.009,0.783,0.31,1.007c0.181,0.146,9.263,5.372,9.263,5.372c-0.009,1.265,0.043,2.505,0.155,3.71
					c0.06,0.594-0.292,1.576-0.809,2.204l-8.342,10.09c-0.508,0.629-0.74,1.558-0.499,2.075l3.96,8.755
					c0.06,0.129,0.146,0.224,0.25,0.284c0.318,0.189,16.951,9.814,17.571,10.167c0,0.009,0,0.009,0.009,0.009
					c0.009,0.009,0.009,0.009,0.009,0.009c0.009,0,0.009,0,0.017,0c0.017-0.009,0.035-0.043,0.052-0.078
					c0.086,0.052,0.172,0.095,0.258,0.155h0.009c4.967,2.875,13.585,7.86,14.128,8.17c0.009,0.009,0.017,0.009,0.026,0.017
					c0.241-0.654,7.412-30.364,7.722-29.89l4.459,6.81c0.043,0.06,0.086,0.112,0.138,0.155l8.497,4.933l9.169,5.312l-0.009-0.017
					l-6.629-20.696C271.517,120.583,284.87,95.402,280.72,92.604z M229.239,106.43l32.31-34.1c0.921,2.04,1.352,4.459,1.334,7.094
					c0.732-0.431,1.472-0.809,2.195-1.119c0.069,0.749,0.103,1.541,0.103,2.376c0,11.157-7.825,24.708-17.485,30.286
					c-0.706,0.405-1.403,0.766-2.066,1.076c-0.103-0.818-0.146-1.661-0.138-2.531C238.597,113.541,232.045,112.62,229.239,106.43z"
					/>
			</g>
			<g id="XMLID_2429_" style="opacity:0.15;">
				<path id="XMLID_2430_" d="M280.72,92.604l21.264-4.769c-0.009-0.009-0.026-0.017-0.043-0.026
					c-0.508-0.293-4.855-2.815-9.091-5.26c-4.175-2.419-8.256-4.778-8.437-4.881c-0.163-0.103-0.362-0.163-0.594-0.172l-7.464-0.422
					c-0.758-0.043-1.318-0.585-1.257-1.214c0.215-2.497,0.224-4.916,0.009-7.197c-0.052-0.603,0.301-1.584,0.818-2.204l11.94-0.973
					c0.508-0.62,10.279-10.047,10.279-10.047c-0.017-0.009-0.034-0.017-0.051-0.026c-1.025-0.594-17.442-10.107-17.545-10.167
					c-0.095-0.052-0.215-0.069-0.336-0.069c-5.054-2.918-13.912-8.049-14.119-8.178c-0.215-0.129-0.517-0.198-0.861-0.164
					l-8.704,0.861c-0.809,0.086-1.661,0.68-1.903,1.326l-4.718,12.655c-0.25,0.654-1.102,1.455-1.903,1.842
					c-0.921,0.43-1.842,0.921-2.772,1.455l-9.134-5.286c-0.361-0.241-0.938-0.086-1.412,0.413l-9.556,10.09
					c-0.577,0.603-0.904,1.541-0.741,2.101l2.66,9.005c0.164,0.56-0.06,1.532-0.491,2.17c-1.627,2.471-3.099,5.036-4.391,7.636
					c-0.327,0.654-1.248,1.343-2.075,1.541l-8.179,1.971c-0.826,0.198-1.662,0.887-1.851,1.541l-4.115,13.852
					c-0.12,0.405,0.009,0.783,0.31,1.007c0.181,0.146,9.263,5.372,9.263,5.372c-0.009,1.265,0.043,2.505,0.155,3.71
					c0.06,0.594-0.292,1.576-0.809,2.204l-8.342,10.09c-0.508,0.629-0.74,1.558-0.499,2.075l3.96,8.755
					c0.06,0.129,0.146,0.224,0.25,0.284c0.318,0.189,16.951,9.814,17.571,10.167c0,0.009,0,0.009,0.009,0.009
					c0.009,0.009,0.009,0.009,0.009,0.009c0.009,0,0.009,0,0.017,0c0.017-0.009,0.035-0.043,0.052-0.078
					c0.086,0.052,0.172,0.095,0.258,0.155h0.009c4.967,2.875,13.585,7.86,14.128,8.17c0.009,0.009,0.017,0.009,0.026,0.017
					c0.241-0.654,7.412-30.364,7.722-29.89l4.459,6.81c0.043,0.06,0.086,0.112,0.138,0.155l8.497,4.933l9.169,5.312l-0.009-0.017
					l-6.629-20.696C271.517,120.583,284.87,95.402,280.72,92.604z M229.239,106.43l32.31-34.1c0.921,2.04,1.352,4.459,1.334,7.094
					c0.732-0.431,1.472-0.809,2.195-1.119c0.069,0.749,0.103,1.541,0.103,2.376c0,11.157-7.825,24.708-17.485,30.286
					c-0.706,0.405-1.403,0.766-2.066,1.076c-0.103-0.818-0.146-1.661-0.138-2.531C238.597,113.541,232.045,112.62,229.239,106.43z"
					/>
			</g>
			<path id="XMLID_4931_" style="opacity:0.15;" d="M285.863,87.792l-5.105-10.47l-4.402-0.249
				c-0.758-0.043-1.317-0.585-1.257-1.214c0.113-1.309,0.165-2.595,0.162-3.853l-12.286,1.653l-0.692,0.824
				c0.403,1.522,0.611,3.176,0.6,4.94c0.732-0.431,1.472-0.809,2.195-1.119c0.069,0.749,0.103,1.541,0.103,2.376
				c0,11.157-7.825,24.708-17.485,30.286c-0.706,0.405-1.403,0.766-2.066,1.076c-0.103-0.818-0.146-1.662-0.138-2.531
				c-2.159,1.261-4.283,2.037-6.27,2.318l-0.165,0.457l8.964,16.576l0.078,0.022c1.045-4.058,1.84-6.972,1.939-6.821l4.459,6.81
				c0.043,0.06,0.086,0.112,0.138,0.155l8.497,4.933l9.168,5.312l-0.009-0.017l-6.629-20.696
				c5.854,2.023,19.207-23.158,15.057-25.956l4.111-0.922L285.863,87.792z"/>
			<path id="XMLID_4930_" style="opacity:0.15;" d="M239.057,127.905c0,0-7.015,8.294-12.325,15.146
				c0.601,0.347,0.992,0.573,1.077,0.621c0,0.009,0,0.009,0.009,0.009c0.009,0.009,0.009,0.009,0.009,0.009c0.009,0,0.009,0,0.017,0
				c0.017-0.009,0.034-0.043,0.052-0.078c0.086,0.052,0.172,0.095,0.258,0.155h0.009c4.967,2.875,13.585,7.86,14.128,8.17
				c0.009,0.009,0.017,0.009,0.026,0.017c0.142-0.387,2.704-10.918,4.841-19.373L239.057,127.905z"/>
			<path id="XMLID_4929_" style="opacity:0.15;" d="M215.398,111.391c-0.14,0.328-0.314,0.651-0.528,0.91l-8.342,10.09
				c-0.508,0.629-0.74,1.558-0.499,2.075l3.96,8.755c0.06,0.129,0.146,0.224,0.25,0.284c0.114,0.068,2.313,1.341,5.116,2.964
				l8.995,3.135l11.682-16.3L215.398,111.391z"/>
			<path id="XMLID_4928_" style="opacity:0.05;" d="M229.239,106.43l1.521-1.605c-7.257-1.735-17.264-4.088-17.264-4.088
				l-0.916,3.954c1.634,0.943,2.945,1.697,2.945,1.697c-0.009,1.265,0.043,2.505,0.155,3.71c0.035,0.349-0.083,0.828-0.281,1.294
				l20.633,11.913c0,0,5.876-10.365,5.593-10.851c-0.066-0.114-0.309-0.496-0.633-1.008
				C235.876,112.858,231.422,111.246,229.239,106.43z"/>
			<path id="XMLID_4927_" style="opacity:0.15;" d="M241.28,93.721l-20.082-11.594c-0.346,0.238-0.732,0.428-1.102,0.516
				l-8.178,1.971c-0.827,0.198-1.662,0.887-1.851,1.541l-3.001,10.102l19.188,8.087l11.365-6.759L241.28,93.721z"/>
			<path id="XMLID_4926_" style="opacity:0.15;" d="M246.513,83.754l5.387-10.096l-3.641-13.125l-20.346-3.278l-2.78,2.935
				c-0.577,0.603-0.904,1.541-0.741,2.101l2.66,9.005c0.091,0.311,0.053,0.747-0.064,1.185L246.513,83.754z"/>
			<path id="XMLID_4925_" style="opacity:0.15;" d="M248.972,52.869l22.021,12.714c0,0,4.138-15.215,6.047-22.24
				c-4.907-2.838-10.779-6.24-10.946-6.345c-0.215-0.129-0.517-0.198-0.861-0.164l-8.704,0.861c-0.809,0.086-1.661,0.68-1.903,1.326
				l-4.718,12.655C249.762,52.062,249.403,52.497,248.972,52.869z"/>
			<path id="XMLID_4616_" style="fill:#27DEBF;" d="M227.827,143.688l-0.844-8.143l-20.973-12.108
				c-0.099,0.387-0.103,0.762,0.018,1.031l3.96,8.753c0.059,0.129,0.146,0.224,0.253,0.285h0l0.041,0.024
				C211.131,134.017,227.824,143.687,227.827,143.688z"/>
			<path id="XMLID_4615_" style="fill:#27DEBF;" d="M230.48,97.185l-20.115-11.568c-0.138,0.175-0.244,0.357-0.298,0.538
				l-4.117,13.856c-0.121,0.406,0.013,0.777,0.314,1.009c0.012,0.009,0.064,0.041,0.148,0.091l9.064,5.251
				c0.028,0.016,0.048,0.028,0.048,0.028l0,0l8.426,4.881L230.48,97.185z"/>
			<path id="XMLID_4376_" style="fill:#27DEBF;" d="M224.456,61.389l17.595,10.102l11.609-11.639l-17.561-10.167l-0.001,0
				c-0.362-0.235-0.935-0.081-1.407,0.418l-9.561,10.093C224.81,60.531,224.58,60.968,224.456,61.389z"/>
			<path id="XMLID_4375_" style="fill:#27DEBF;" d="M266.093,37.002c-0.215-0.136-0.512-0.201-0.859-0.166l-8.705,0.862
				c-0.527,0.052-1.07,0.326-1.453,0.69L277.959,51.6l5.847-3.376l-0.168-1.065C283.638,47.159,266.379,37.182,266.093,37.002z"/>
			<path id="XMLID_3603_" style="opacity:0.3;fill:#FFFFFF;" d="M227.827,143.688l-0.844-8.143l-20.973-12.108
				c-0.099,0.387-0.103,0.762,0.018,1.031l3.96,8.753c0.059,0.129,0.146,0.224,0.253,0.285h0l0.041,0.024
				C211.131,134.017,227.824,143.687,227.827,143.688z"/>
			<path id="XMLID_3602_" style="opacity:0.3;fill:#FFFFFF;" d="M230.48,97.185l-20.115-11.568
				c-0.138,0.175-0.244,0.357-0.298,0.538l-4.117,13.856c-0.121,0.406,0.013,0.777,0.314,1.009c0.012,0.009,0.064,0.041,0.148,0.091
				l9.064,5.251c0.028,0.016,0.048,0.028,0.048,0.028l0,0l8.426,4.881L230.48,97.185z"/>
			<path id="XMLID_3600_" style="opacity:0.4;fill:#FFFFFF;" d="M224.456,61.389l17.595,10.102l11.609-11.639l-17.561-10.167
				l-0.001,0c-0.362-0.235-0.935-0.081-1.407,0.418l-9.561,10.093C224.81,60.531,224.58,60.968,224.456,61.389z"/>
			<path id="XMLID_2435_" style="opacity:0.4;fill:#FFFFFF;" d="M266.093,37.002c-0.215-0.136-0.512-0.201-0.859-0.166l-8.705,0.862
				c-0.527,0.052-1.07,0.326-1.453,0.69L277.959,51.6l5.847-3.376l-0.168-1.065C283.638,47.159,266.379,37.182,266.093,37.002z"/>
			<g id="XMLID_3859_">
				<path id="XMLID_3981_" style="fill:#27DEBF;" d="M301.984,87.834c-0.009-0.009-0.026-0.017-0.043-0.026
					c-0.146-0.077-0.336-0.129-0.542-0.138l-7.464-0.422c-0.758-0.043-1.317-0.585-1.257-1.214c0.103-1.18,0.163-2.35,0.172-3.487
					c0.009-1.266-0.043-2.505-0.164-3.71c-0.051-0.594,0.301-1.575,0.818-2.204l8.333-10.09c0.517-0.628,0.741-1.558,0.508-2.075
					l-3.96-8.755c-0.052-0.121-0.138-0.215-0.241-0.276c-0.017-0.009-0.034-0.017-0.051-0.026c-0.327-0.163-0.818-0.026-1.274,0.396
					l-8.901,8.127c-0.628,0.577-1.481,0.706-1.946,0.327c-1.154-0.947-2.428-1.679-3.805-2.213
					c-0.611-0.241-1.033-0.913-0.895-1.558l2.746-12.457c0.086-0.379-0.069-0.697-0.379-0.878c-0.215-0.121-0.499-0.172-0.826-0.146
					l-8.704,0.869c-0.809,0.077-1.661,0.672-1.903,1.326l-4.718,12.655c-0.241,0.654-1.102,1.455-1.903,1.834
					c-1.782,0.844-3.581,1.885-5.389,3.125c-0.732,0.491-1.55,0.525-1.868,0.043l-4.451-6.801c-0.319-0.482-1.033-0.379-1.61,0.215
					l-9.556,10.098c-0.577,0.603-0.904,1.541-0.74,2.092l2.66,9.014c0.163,0.551-0.06,1.524-0.482,2.169
					c-1.636,2.471-3.099,5.028-4.399,7.628c-0.327,0.654-1.248,1.352-2.075,1.55l-8.178,1.972c-0.827,0.198-1.653,0.887-1.851,1.532
					l-4.115,13.86c-0.198,0.646,0.267,1.205,1.016,1.248l7.473,0.422c0.758,0.043,1.308,0.585,1.257,1.214
					c-0.224,2.497-0.232,4.916-0.017,7.197c0.06,0.603-0.293,1.584-0.809,2.204l-8.334,10.098c-0.517,0.62-0.74,1.55-0.508,2.075
					l3.96,8.747c0.052,0.129,0.138,0.215,0.241,0.275c0,0.009,0,0.009,0.009,0.009c0.009,0.009,0.017,0.009,0.026,0.009
					c0.095,0.052,0.198,0.077,0.31,0.077h0.009c0.293,0,0.637-0.155,0.973-0.456l8.893-8.135c0.629-0.568,1.481-0.706,1.946-0.327
					c1.162,0.947,2.436,1.679,3.805,2.212c0.62,0.241,1.042,0.921,0.895,1.558l-2.747,12.466c-0.077,0.37,0.069,0.671,0.362,0.852
					c0.009,0.009,0.017,0.009,0.026,0.017c0.207,0.121,0.491,0.181,0.818,0.146l8.703-0.861c0.809-0.086,1.662-0.68,1.903-1.326
					l4.726-12.655c0.241-0.654,1.102-1.455,1.903-1.842c0.912-0.43,1.842-0.921,2.763-1.455c0.87-0.508,1.748-1.068,2.626-1.661
					c0.723-0.499,1.549-0.534,1.86-0.052l4.459,6.81c0.06,0.086,0.129,0.155,0.215,0.198c0.362,0.224,0.921,0.069,1.386-0.422
					l9.565-10.098c0.568-0.594,0.895-1.541,0.732-2.092l-2.66-9.005c-0.163-0.56,0.069-1.532,0.491-2.17
					c1.636-2.471,3.099-5.036,4.391-7.636c0.327-0.654,1.248-1.343,2.083-1.541l8.17-1.971c0.835-0.198,1.661-0.887,1.851-1.541
					l4.124-13.852C302.553,88.471,302.372,88.058,301.984,87.834z M258.346,121.685c-0.164,0.043-0.318,0.086-0.482,0.12
					c-0.12,0.035-0.232,0.052-0.344,0.077c-0.258,0.052-0.517,0.095-0.775,0.129c-0.305,0.043-0.602,0.067-0.899,0.087
					c-0.187,0.012-0.373,0.018-0.557,0.02c-0.088,0.001-0.175,0.001-0.262,0c-3.574-0.04-6.548-1.851-8.2-5.514
					c-0.62-1.369-1.016-2.91-1.197-4.563c-0.103-0.818-0.146-1.661-0.138-2.531c0.052-7.894,4.107-17.674,10.796-24.742
					c2.161-2.281,4.391-4.063,6.594-5.346c0.732-0.431,1.472-0.809,2.195-1.119c2.169-0.956,4.261-1.395,6.173-1.309
					c0.026,0,0.043,0,0.069,0.009c0.103,0,0.207,0.009,0.31,0.017c0.112,0.009,0.215,0.017,0.319,0.034
					c0.112,0.009,0.224,0.017,0.336,0.043c2.97,0.431,5.398,2.221,6.844,5.407c3.693,8.17-0.542,22.426-9.461,31.836
					C265.93,118.284,261.961,120.755,258.346,121.685z"/>
			</g>
			<line id="XMLID_3858_" style="fill:#263238;" x1="280.545" y1="45.247" x2="298.142" y2="55.435"/>
		</g>
		<g id="XMLID_4814_">
			<g id="XMLID_9202_">
				
					<rect id="XMLID_9204_" x="231.359" y="343.362" transform="matrix(-0.9996 -0.0286 0.0286 -0.9996 460.2078 706.3102)" style="fill:#B16668;" width="7.595" height="13.002"/>
				<path id="XMLID_9203_" style="fill:#263238;" d="M238.874,352.722l0.031-1.086c0.717,0.337,2.221,6.825,5.154,9.659
					c2.332,2.253,5.527,4.869,6.288,7.328c0.792,2.557-4.662,3.8-6.888,3.34c-2.586-0.535-7.04-2.494-8.122-4.223
					c-1.082-1.729-1.54-4.247-2.424-5.518c-0.883-1.27-2.962-2.719-3.418-4.172c-0.25-0.799,0.123-2.521,0.549-3.973
					c0.39-1.332,0.814-2.797,1.269-2.658c-0.003,0.164-0.024,0.828-0.024,0.828c0.534,0.626,2.041,1.276,3.759,1.392
					C236.158,353.713,238.859,353.57,238.874,352.722z"/>
			</g>
			<g id="XMLID_9192_">
				<polygon id="XMLID_9194_" style="fill:#B16668;" points="252.461,347.13 260.042,347.608 260.815,333.865 252.855,333.376 				
					"/>
				<path id="XMLID_9193_" style="fill:#263238;" d="M260.189,345.269c0.394,0.025,0.699,0.59,1.541,1.556
					c1.018,1.168,2.702,2.444,4.374,3.341c2.802,1.504,8.266,3.852,10.735,5.05c1.543,0.749,1.415,2.634-0.231,3.662
					c-1.646,1.028-5.568,1.69-10.221,0.509c-2.535-0.644-5.788-3.095-7.894-3.028c-2.105,0.067-6.038-0.076-7.559-1.19
					c-1.521-1.114-0.835-3.38-0.34-5.33c0.54-2.128,1.234-5.451,1.939-5.285l-0.021,0.738c0.873,1.408,5.567,2.106,7.601,1.146
					L260.189,345.269z"/>
			</g>
			<g id="XMLID_9186_">
				<path id="XMLID_9191_" style="fill:#27DEBF;" d="M231.091,246.117c-0.207,7.25-0.133,49.455-0.133,49.455
					c-0.237,2.081-2.351,5.733-2.722,13.242c-0.538,10.89,2.801,40.931,2.801,40.931s3.624,2.259,8.448,0.409
					c0,0,4.604-40.46,6.274-51.207c1.457-9.379,4.203-34.894,4.203-34.894l2.695,30.833c0,0-1.56,5.574-1.286,12.038
					c0.212,4.999,0.733,35.932,0.733,35.932s3.504,2.527,8.747,0.922c0,0,6.615-43.887,6.834-48.462
					c0.249-5.216-0.31-58.548-0.31-58.548L231.091,246.117z"/>
				<path id="XMLID_1236_" style="opacity:0.3;" d="M231.091,246.117c-0.207,7.25-0.133,49.455-0.133,49.455
					c-0.237,2.081-2.351,5.733-2.722,13.242c-0.538,10.89,2.801,40.931,2.801,40.931s3.624,2.259,8.448,0.409
					c0,0,4.604-40.46,6.274-51.207c1.457-9.379,4.203-34.894,4.203-34.894l2.695,30.833c0,0-1.56,5.574-1.286,12.038
					c0.212,4.999,0.733,35.932,0.733,35.932s3.504,2.527,8.747,0.922c0,0,6.615-43.887,6.834-48.462
					c0.249-5.216-0.31-58.548-0.31-58.548L231.091,246.117z"/>
				<path id="XMLID_9189_" style="opacity:0.35;" d="M249.961,264.053c0,0,6.117-1.536,10.745-5.759c0,0-2.149,3.761-8.317,7.142
					l0.041,26.859L249.961,264.053z"/>
			</g>
			<g id="XMLID_6612_">
				<path id="XMLID_9183_" style="fill:#37474F;" d="M227.398,178.604c-0.719-0.466-4.379,0.896-6.812,3.668
					c-2.433,2.772-3.033,6.94-2.442,7.88c0.591,0.939,9.492-2.035,9.492-2.035L227.398,178.604z"/>
				<path id="XMLID_8426_" style="fill:#FAFAFA;" d="M236.035,194.953c-1.67,0.747-2.99,2.107-3.66,3.809
					c-0.597,1.516-2.399,3.971-2.399,6.87l1.286,14.576l-0.564,26.083c10.901,5.746,25.419,5.612,37.049-2.881
					c0,0-0.961-33.634-0.961-39.55c0-0.267-0.007-0.538-0.021-0.812c-0.31-6.195-4.863-10.964-10.5-12.239
					c-2.053-0.464-13.32,1.868-13.32,1.868L236.035,194.953L236.035,194.953z"/>
				<path id="XMLID_8424_" style="fill:#B16668;" d="M212.158,176.193c1.726,5.149,16.693,30.485,20.377,35.398
					c9.591-4.638,2.529-15.835,2.529-15.835s-12.185-23.309-13.518-26.291c-0.825-1.846-0.808-13.405-0.715-18.905
					c0.028-1.676,0.081-2.792,0.511-4.402c0.439-1.645,1.078-2.721,1.178-4.462c0.066-1.133-0.639-3.124-1.039-4.186
					c-0.767-2.038-1.596-4.552-1.11-6.739c0.078-0.351,0.194-0.7,0.184-1.059c-0.019-0.708-0.512-1.305-0.996-1.822
					c-0.813-0.87-1.672-1.697-2.572-2.476c-0.54-0.467-1.105-0.924-1.767-1.191c-0.662-0.267-1.441-0.324-2.075,0.004
					c-0.589,0.305-0.976,0.892-1.271,1.485c-0.87,1.751-1.156,3.746-1.114,5.701c0.027,1.276,0.189,2.545,0.395,3.803
					c0.192,1.174-0.084,9.089-0.113,11.935c-0.079,7.718-0.739,15.928-0.344,21.252C210.899,171.101,211.138,173.15,212.158,176.193
					z"/>
				<path id="XMLID_8422_" style="fill:#455A64;" d="M237.732,194.524l-10.334-15.921c0,0,0.033,9.723-9.254,11.548l12.393,21.845
					c1.272,2.75,5.388,0.734,6.956-4.984C239.68,199.035,237.732,194.524,237.732,194.524z"/>
			</g>
			<g id="XMLID_4815_">
				<g id="XMLID_4836_">
					<circle id="XMLID_5709_" style="fill:#263238;" cx="255.536" cy="166.085" r="10.438"/>
					<path id="XMLID_5695_" style="fill:#263238;" d="M237.493,173.507c0,0,1.691,7.947,2.37,9.252
						c0.678,1.306,2.08,1.677,2.08,1.677l-0.118-5.59L237.493,173.507z"/>
					<path id="XMLID_5678_" style="fill:#263238;" d="M239.616,162.122c0,0-1.822-0.312-3.242,1.14
						c-1.392,1.424-0.615,5.88,1.119,10.244l3.186,0.366L239.616,162.122z"/>
					<path id="XMLID_5674_" style="fill:#B16668;" d="M241.635,173.875c-0.639,0.382-1.55-0.846-2.338-1.67
						c-0.788-0.824-3.36-1.951-4.643,0.753c-1.307,2.755,1.133,6.395,3.157,7.031c3.49,1.095,4.013-1.143,4.013-1.143l0.257,14.115
						l0,0c4.339,5.562,16.38,5.138,11.363-0.672l-0.01-5.02c0,0,3.162,0.48,4.704,0.241c2.566-0.397,4.181-2.422,4.959-5.199
						c1.251-4.462,1.725-8.064,0.664-16.839c-1.163-9.618-12.349-9.718-18.39-5.916
						C239.331,163.359,241.635,173.875,241.635,173.875z"/>
					<path id="XMLID_4933_" style="fill:#263238;" d="M241.635,174.95c-0.321,0.006-1.543-2.021-2.338-2.745
						c-1.102-1.003,0.319-10.083,0.319-10.083s-1.059-2.257,1.063-4.592c1.51-1.661,3.151-2.711,7.505-2.943
						c2.549-0.136,6.625,0.264,8.915,0.419c4.298,0.291,5.885-0.768,8.353-1.46c1.889-0.53,2.103,6.291-2.668,8.549
						c0,0-1.553,1.002-5.641,1.5c-4.088,0.498-10.455-0.096-11.325-0.215c-1.185-0.162-1.438,0.987-2.077,4.125
						C243.18,170.26,242.715,174.929,241.635,174.95z"/>
					<path id="XMLID_4905_" style="fill:#263238;" d="M239.622,162.829l-3.863-2.074c0.548-1.107,1.857-1.54,2.924-0.967
						C239.75,160.361,240.171,161.722,239.622,162.829z"/>
					<path id="XMLID_4837_" style="fill:#9A4A4D;" d="M253.434,187.269c0,0-5.729-1.154-7.731-2.219
						c-1.34-0.712-2.444-1.947-2.769-2.739c0,0,0.375,1.7,1.573,3.231c1.465,1.872,8.927,3.251,8.927,3.251L253.434,187.269z"/>
				</g>
				<g id="XMLID_4816_">
					<path id="XMLID_4822_" style="fill:#263238;" d="M253.155,172.443c0,0.659-0.514,1.191-1.148,1.19
						c-0.634-0.002-1.148-0.537-1.148-1.196c0-0.659,0.514-1.191,1.148-1.19C252.641,171.249,253.155,171.784,253.155,172.443z"/>
					<path id="XMLID_4821_" style="fill:#263238;" d="M251.937,168.109l-2.456,1.355c-0.362-0.705-0.106-1.581,0.572-1.955
						C250.732,167.135,251.575,167.403,251.937,168.109z"/>
					<path id="XMLID_4820_" style="fill:#9A4A4D;" d="M252.916,180.373l2.621,0.983c-0.259,0.751-1.056,1.14-1.78,0.868
						C253.033,181.953,252.656,181.124,252.916,180.373z"/>
					<path id="XMLID_4819_" style="fill:#263238;" d="M263.059,169.064l-2.239-1.725c0.457-0.641,1.328-0.775,1.947-0.299
						C263.384,167.517,263.515,168.423,263.059,169.064z"/>
					<path id="XMLID_4818_" style="fill:#263238;" d="M262.369,172.116c0,0.659-0.514,1.191-1.148,1.189
						c-0.634-0.002-1.148-0.537-1.148-1.196c0-0.659,0.514-1.191,1.148-1.19C261.855,170.922,262.369,171.457,262.369,172.116z"/>
					<polygon id="XMLID_4817_" style="fill:#9A4A4D;" points="256.521,171.027 256.897,177.931 260.502,176.702 					"/>
				</g>
			</g>
			<path id="XMLID_14270_" style="fill:#B16668;" d="M211.174,140.994c-0.836-2.743-2.052-4.271-3.122-6.585
				c-1.659-3.588-0.246-6.012,0.105-5.236c0.75,1.659,3.353,5.311,4.124,5.307c0.771-0.004,0.967,4.014,0.967,4.014L211.174,140.994
				z"/>
		</g>
	</g>
</g>
<g id="Character_1">
	<g id="XMLID_15085_">
		<g id="XMLID_5613_">
			<path id="XMLID_8255_" style="fill:#FFA8A7;" d="M90.94,228.418c0.251-7.386,3.675-11.16,7.163-15.735
				c6.395-8.389,12.679-16.855,12.679-16.855s16.875-35.087,18.333-38.318c1.732-3.837,9.668,0.447,8.158,2.985
				c0,0-1.703,3.546-3.037,6.912c-4.916,12.399-9.418,24.481-14.544,36.585l-20.315,25.702L90.94,228.418z"/>
		</g>
		<g id="XMLID_2383_">
			<path id="XMLID_3615_" style="fill:#455A64;" d="M198.658,105.956L198.658,105.956c-0.213-0.058-0.506-0.068-0.824,0.078
				l-9.212,4.15c-0.646,0.293-1.317-0.026-1.533-0.706c-0.361-1.162-6.672-2.499-7.188-3.498l3.545-8.794L198.658,105.956z"/>
			<path id="XMLID_3612_" style="fill:#263238;" d="M183.45,97.217l-0.001-0.02c-0.21-0.12-0.491-0.143-0.801-0.003l-6.799-15.736
				c0.317-0.639,0.073-1.446-0.545-1.803l-6.663-3.847c-0.618-0.357-1.438-0.164-1.833,0.43l-7.651,11.507
				c-0.395,0.594-1.291,1.013-2.004,0.995c-0.866-0.023-1.759,0.022-2.672,0.125V80.45l-5.112-2.947v0.001
				c-0.227-0.12-0.524-0.106-0.836,0.075l-10.349,5.975c-0.617,0.357-1.17,1.221-1.234,1.932L135.913,97
				c-0.064,0.71-0.551,1.667-1.076,2.15c-2.014,1.855-3.938,3.898-5.749,6.085c-0.455,0.549-1.36,0.811-2.033,0.576l-6.643-2.32
				c-0.673-0.235-1.508,0.075-1.865,0.692l-7.608,13.177c-0.356,0.618-0.208,1.496,0.333,1.961l5.33,4.593
				c0.54,0.465,0.765,1.381,0.518,2.05c-0.988,2.662-1.796,5.35-2.396,8.022c-0.156,0.696-0.741,1.596-1.324,2.006l-9.454,6.655
				c-0.583,0.411-1.056,1.321-1.056,2.035v11.949c0,0.368,0.142,0.634,0.368,0.768l-0.003,0.002l11.981,6.915l-4.37,8.811
				c-0.317,0.639-0.073,1.446,0.545,1.803l16.289,9.436c0.618,0.357,1.439,0.164,1.833-0.43l7.402-7.569
				c0.035,0.343,0.182,0.587,0.396,0.707l15.174,8.757l0.405-11.88c0,0-3.208-4.141-3.144-4.852l16.538-18.009
				c0.673,0.237,1.507-0.072,1.864-0.689l7.608-13.177c0.357-0.618,0.208-1.496-0.333-1.961l7.325-23.325
				c0.583-0.41,1.056-1.321,1.056-2.035L183.45,97.217z M143.358,147.48c-4.441,2.564-8.109,3.112-10.776,1.871
				c-3.131-1.457,22.268-45.003,24.934-42.625c2.155,1.922,3.324,5.489,3.324,10.472C160.84,128.349,153.013,141.906,143.358,147.48
				z"/>
			<path id="XMLID_2428_" style="fill:#455A64;" d="M185.979,87.302l-2.058,4.158l-6.612,7.628l-7.791-4.503l-10.916-6.31
				c0.224-0.146,0.422-0.327,0.551-0.534l7.653-11.502c0.396-0.585,1.197-0.783,1.816-0.439l6.68,3.857l10.133,5.846
				C186.048,85.855,186.297,86.665,185.979,87.302z"/>
			<path id="XMLID_2425_" style="fill:#455A64;" d="M114.101,135.255c-0.214,0.296-0.454,0.565-0.701,0.738l-9.454,6.655
				c-0.25,0.176-0.469,0.452-0.65,0.756l15.896,9.197l12.551-7.14L114.101,135.255z"/>
			<path id="XMLID_2419_" style="fill:#455A64;" d="M119.789,103.425c-0.502,0.047-0.991,0.324-1.242,0.759l-7.608,13.177
				c-0.174,0.302-0.225,0.667-0.17,1.016l16.658,9.64l10.414-14.088L119.789,103.425z"/>
			<path id="XMLID_2415_" style="fill:#455A64;" d="M164.577,86.286v3.788l-9.212,5.32l-18.251-10.546
				c0.224-0.534,0.629-1.042,1.068-1.291l10.348-5.975c0.181-0.103,0.361-0.155,0.516-0.155c0.121,0,0.224,0.026,0.319,0.077
				l4.985,2.867l0.129,0.078l6.878,3.977L164.577,86.286z"/>
			<path id="XMLID_2411_" style="fill:#37474F;" d="M199.037,118.685v-11.95c0-0.713-0.527-1.054-1.177-0.761l-9.211,4.152
				c-0.65,0.293-1.319-0.031-1.534-0.711c-0.536-1.693-1.226-3.217-2.054-4.567c-0.373-0.608-0.457-1.593-0.14-2.232l6.139-12.379
				c0.317-0.639,0.073-1.446-0.545-1.803l-6.663-3.847c-0.618-0.357-1.439-0.164-1.833,0.43l-7.651,11.507
				c-0.395,0.594-1.29,1.013-2.003,0.995c-1.583-0.041-3.248,0.123-4.982,0.505c-0.696,0.154-1.31-0.264-1.382-0.974l-1.01-10.053
				c-0.071-0.71-0.63-0.996-1.247-0.639l-10.349,5.975c-0.618,0.357-1.17,1.221-1.234,1.932l-1.036,11.515
				c-0.064,0.71-0.552,1.667-1.076,2.15c-2.014,1.855-3.937,3.898-5.749,6.085c-0.455,0.549-1.36,0.811-2.033,0.576l-6.643-2.32
				c-0.673-0.235-1.508,0.075-1.865,0.693l-7.608,13.178c-0.357,0.618-0.208,1.496,0.333,1.961l5.33,4.593
				c0.54,0.466,0.766,1.381,0.518,2.05c-0.988,2.662-1.796,5.35-2.395,8.021c-0.156,0.696-0.74,1.596-1.324,2.006l-9.454,6.655
				c-0.583,0.41-1.056,1.321-1.056,2.035v11.949c0,0.713,0.527,1.054,1.177,0.761l9.211-4.152c0.65-0.293,1.319,0.031,1.534,0.71
				c0.536,1.693,1.226,3.217,2.053,4.567c0.373,0.608,0.457,1.593,0.14,2.232l-6.139,12.379c-0.317,0.639-0.073,1.446,0.545,1.803
				l6.663,3.846c0.618,0.357,1.438,0.164,1.833-0.43l7.651-11.506c0.395-0.594,1.291-1.013,2.004-0.995
				c1.583,0.041,3.248-0.123,4.982-0.506c0.697-0.154,1.31,0.264,1.382,0.973l1.01,10.054c0.071,0.71,0.63,0.996,1.247,0.639
				l10.349-5.975c0.618-0.357,1.17-1.221,1.234-1.932l1.036-11.515c0.064-0.71,0.552-1.667,1.076-2.15
				c2.014-1.854,3.937-3.897,5.747-6.083c0.455-0.549,1.36-0.812,2.034-0.577l6.643,2.319c0.673,0.235,1.508-0.075,1.865-0.693
				l7.608-13.177c0.357-0.618,0.208-1.496-0.333-1.961l-5.331-4.593c-0.54-0.465-0.766-1.381-0.517-2.05
				c0.988-2.662,1.796-5.35,2.395-8.021c0.156-0.696,0.741-1.596,1.324-2.006l9.454-6.655
				C198.564,120.309,199.037,119.398,199.037,118.685z M158.57,156.261c-9.656,5.575-17.484,1.055-17.484-10.094
				s7.828-24.706,17.484-30.281c9.655-5.574,17.483-1.055,17.483,10.094C176.053,137.129,168.226,150.686,158.57,156.261z"/>
		</g>
		<g id="Girl_2_">
			<g id="XMLID_4843_">
				<g id="XMLID_5618_">
					<g id="XMLID_5621_">
						<path id="XMLID_8425_" style="fill:#FFA8A7;" d="M124.324,381.504l-0.697-9.937l-8.361-0.586l0.385,8.499
							c-0.194,2.01-1.524,2.795-1.758,3.938c-0.234,1.143,6.85,11.886,10.451,14.051c3.601,2.164,8.7-1.598,9.109-2.856
							c0.548-2.004-5.326-2.037-5.52-2.12c-0.191-0.082-0.387-0.214-0.387-0.214C126.204,389.157,124.324,381.504,124.324,381.504z"
							/>
					</g>
					<g id="XMLID_5620_">
						<path id="XMLID_8423_" style="fill:#263238;" d="M115.097,381.198c1.176,0.793,2.23,2.978,4.027,5.934
							c1.798,2.956,4,7.105,6.993,7.821c2.75,0.658,6.274-1.413,4.21-1.892c-0.721-0.167-2.247-0.344-2.448-0.453
							c-0.168-0.091-0.329-0.323-0.329-0.323s1.528,0.265,3.914,0.429c1.701,0.117,2.827,0.848,3.516,2.239
							c0.449,0.907-0.165,3.445-6.021,4.435c-4.23,0.715-7.186,0.681-9.077-2.161c-2.295-3.449-6.097-6.971-7.676-8.879
							C110.297,386.038,112.598,382.121,115.097,381.198z"/>
					</g>
				</g>
				<g id="XMLID_5614_">
					<g id="XMLID_5617_">
						<path id="XMLID_8418_" style="fill:#FFA8A7;" d="M69.135,373.556l4.81-10.706l-7.235-3.761l-4.079,8.433
							c-1.275,1.71-3.132,1.15-3.969,2.055c-0.837,0.905-0.316,14.49,1.753,18.417c1.2,2.278,3.948,3.03,6.25,3.081
							c1.667,0.037,1.046-2.523-0.174-4.014c-0.264-0.322-0.427-0.663-0.425-1.023C66.078,383.305,69.135,373.556,69.135,373.556z"
							/>
					</g>
					<g id="XMLID_5616_">
						<path id="XMLID_8360_" style="fill:#263238;" d="M60.965,368.229c0.629,1.36,1.438,4.611,2.149,8.196
							c0.783,3.944,1.748,9.23,2.428,10.501c0.642,1.2,0.545-0.119,0.524-0.889c-0.011,0.443,0.902,1.381,1.147,1.704
							c0.859,1.132,1.872,2.071,2.583,3.314c0.415,0.726,1.121,2.023,0.7,2.746c-0.356,0.611-1.485,0.859-2.19,0.915
							c-0.767,0.061-3.801,0.657-8.527-2.241c-0.517-0.317-1.462-1.323-1.804-1.823c-1.797-2.626-1.453-5.033-1.754-7.98
							c-0.407-3.979-1.71-4.995-2.395-7.705c-0.202-0.799-0.268-2.242-0.102-3.281C54.465,368.933,58.201,367.694,60.965,368.229z"
							/>
					</g>
					<path id="XMLID_2024_" style="fill:#37474F;" d="M56.221,382.672c0.301,2.947-0.044,5.354,1.754,7.98
						c0.342,0.5,1.287,1.506,1.804,1.823c4.727,2.897,7.761,2.302,8.527,2.241c0.264-0.021,0.586-0.081,0.906-0.165
						c-5.52-0.193-7.083-5.186-7.754-8.222c-0.673-3.042-1.975-11.688-3.499-13.802c-1.524-2.114-4.236-0.841-4.236-0.841
						c-0.166,1.04-0.099,2.482,0.102,3.281C54.511,377.677,55.814,378.694,56.221,382.672z"/>
				</g>
				<g id="XMLID_5014_">
					<path id="XMLID_6707_" style="fill:#455A64;" d="M117.168,270.038c0,0-17.043,43.954-18.415,48.644
						c-1.374,4.69-2.894,7.664-5.314,11.335c-1.816,2.755-22.327,39.139-22.327,39.139c-5.599-1.685-6.916-5.299-6.916-5.299
						s6.528-29.267,8.817-33.78c2.779-5.479,8.227-9.44,8.227-9.44l5.601-35.494c0.601-5.87-2.551-16.913,6.931-25.305l-0.148,2.498
						L117.168,270.038z"/>
				</g>
				<g id="XMLID_4935_">
					<path id="XMLID_6705_" style="fill:#455A64;" d="M108.867,267.024c-3.51,6.193-6.87,11.661-7.275,18.424
						c-0.857,14.281,6.988,29.405,8.716,39.834c0,0-2.686,7.122-2.375,12.66c0.243,4.336,7.2,37.968,7.2,37.968
						s4.956,2.383,8.983-0.074c0,0,2.526-48.985,2.248-67.816c-0.278-18.831-2.784-45.285-2.784-45.285L108.867,267.024z"/>
				</g>
				<g id="XMLID_4924_">
					<path id="XMLID_5707_" style="fill:#455A64;" d="M122.955,262.735l-29.182-2.898c-1.709,3.551-6.172,12.263-4.574,17.651
						c1.938,6.529,5.994,10.843,17.28,12.989"/>
				</g>
				<g id="XMLID_4839_">
					<path id="XMLID_5676_" style="fill:#37474F;" d="M104.15,303.951l-4.041-16.297c0,0-7.17-1.935-10.603-5.703
						c0,0,1.901,4.649,7.802,7.924c0.54,0.55,5.507,17.614,5.507,17.614L104.15,303.951z"/>
				</g>
			</g>
			<g id="XMLID_5494_">
				<polygon id="XMLID_8250_" style="fill:#FFA8A7;" points="116.877,217.774 115.674,228.351 105.25,229.554 106.754,215.522 				
					"/>
				<path id="XMLID_6709_" style="fill:#FFA8A7;" d="M91.206,231.335c0.181,0.907,0.632,2.904,1.469,5.917
					c1.534,5.537,4.167,13.071,5.158,15.707c0.056,0.112,0.084,0.209,0.126,0.293l-4.114,6.695c0,0,2.762,3.417,10.962,5.802
					c8.215,2.385,18.173-2.455,18.173-2.455l3.389-19.415c1.13-2.891,3.194-6.789,5.454-8.145
					c1.129-0.678,16.159-11.469,19.952-13.785c3.083-1.869,4.296-3.214,4.812-4.678c0.53-1.465,5.87-23.571,6.734-25.969
					c0.865-2.399,1.66-3.138,3.57-5.174c1.897-2.036,2.566-2.497,3.152-4.324c0.586-1.883-0.153-2.273-0.446-3.18
					c-0.404-1.255,0.056-2.134-0.223-3.082c-0.349-1.186-1.074-1.492-1.255-2.022c-0.279-0.837,0.056-1.297-0.488-2.817
					c-0.181-0.53-0.764-1.666-1.838-2.196l-0.314,3.492c-1.046,4.282-5.519,5.817-6.119,5.51c-0.6-0.307-1.478-2.748-2.789-3.822
					c-1.269-1.046-3.124-0.934-2.455,0.363c0.377,0.753,1.241,3.556,1.688,4.798c0.446,1.241,1.771,3.849,1.479,5.844
					c-0.377,2.664-9.771,26.761-9.771,26.761s-5.068,3.268-16.777,8.927c-6.698,3.237-10.549,4.311-10.549,4.311
					c-0.739-0.126-3.746-0.169-5.155-0.42c-0.391-0.083-0.809-0.153-1.241-0.223c-5.509-1.018-13.836-2.552-16.095-2.957
					c-0.209-0.042-0.404-0.07-0.586-0.112c-0.516-0.056-1.06-0.028-1.59,0.056c-1.646,0.405-2.929,1.841-3.403,2.901
					C91.208,225.943,90.55,227.918,91.206,231.335z"/>
			</g>
			<g id="XMLID_4845_">
				<path id="XMLID_1238_" style="fill:#27DEBF;" d="M120.185,224.689c-0.739-0.126-3.746-0.169-5.155-0.42
					c-0.391-0.07-0.809-0.139-1.241-0.223c-4.812-0.851-10.399-1.863-14.751-2.714c-0.209-0.042-8.463,3.93-7.79,13.725
					c0.389,5.665,4.314,14.47,5.254,16.971l0,0c-3.382,3.941-6.995,10.406-8.666,15.816c0,0,2.96,7.545,17.731,9.012
					c15.054,1.495,19.226-5.443,19.226-5.443l-0.74-13.878c0.654-3.515,2.042-9.51,2.315-13.658
					C118.103,240.543,120.185,224.689,120.185,224.689z"/>
				<path id="XMLID_5685_" style="opacity:0.15;" d="M95.367,249.188c0,0,3.059,4.579,10.2,6.264
					c-3.821-0.19-7.125-0.847-9.065-3.423L95.367,249.188z"/>
			</g>
			<g id="XMLID_8305_">
				<path id="XMLID_8306_" style="fill:#FFA8A7;" d="M116.128,192.102c2.535,1.102,7.244,0.309,8.893,12.07
					c1.299,9.262-0.374,12.433-1.556,13.732c-0.798,0.876-5.952,1.684-8.294,1.125c-2.931-0.699-9.357-3.357-12.593-7.944
					c-3.807-5.396-5.017-12.847-1.254-16.051C106.619,190.523,113.982,191.169,116.128,192.102z"/>
				<path id="XMLID_8417_" style="fill:#F28F8F;" d="M124.847,203.721c0,0,2.775,3.642,2.473,4.067
					c-0.302,0.425-1.875,0.961-1.875,0.961L124.847,203.721z"/>
			</g>
			<path id="XMLID_3676_" style="fill:#37474F;" d="M122.365,188.269c-3.59-3.19-11-4.52-17.46-0.39c-1.19,0.31-2.42,0.7-3.67,1.16
				c-1.18,0.44-2.36,1.15-3.44,2.14c0.1-0.42,0.06-0.88-0.12-1.32c-0.49-1.15-1.83-1.69-2.98-1.2l1.16,2.74
				c-0.2-0.15-0.44-0.27-0.7-0.34c-1.21-0.34-2.46,0.36-2.8,1.57l3.39,0.95c-1.5,2.23-2.54,5.19-2.69,8.84
				c-0.07,0.7-0.1,1.4-0.1,2.11l-0.01-0.01v15.23c0,5.13,3.59,9.57,8.62,10.63l15.31,3.25l-0.34-21.39c0,0-1.1,0.14-2.33-0.2
				c-0.75-0.2-1.56-0.59-2.19-1.3c-2-2.2-1.34-6.05,0.63-6.58c1.51-0.42,2.53,0.2,3.15,0.88l0.65,1.02l0.46,2.14l0.17,0.81
				c1.23-0.26,2.01-1.47,1.74-2.69c-0.04-0.2-0.11-0.39-0.2-0.56l0.26-0.37C127.165,201.229,126.075,191.568,122.365,188.269z"/>
		</g>
	</g>
</g>
</svg>
